# xmcd
#
# Track frame offsets:
#	150
#	27235
#	44172
#	59412
#	81619
#	101218
#	125508
#	149991
#	186755
#	218909
#	242330
#	273164
#	299905
#
# Disc length: 4469 seconds
#
# Revision: 0
# Processed by: cddbd v1.5.2PL0 Copyright (c) Steve Scherf et al.
# Submitted via: audiograbber 1.83.01
#
DISCID=dc11730d
DTITLE=Diverse - Das 100. Konzert Live in Reitwein CD 2
DYEAR=2013
DGENRE=Blues
TTITLE0=Charlie Eitner - Variationen über einen andalusischen Gassenhauer
TTITLE1=Charlie Eitner - Got My Mojo Working
TTITLE2=Speiches Monokel - Boogiemobil
TTITLE3=Speiches Monokel - Bye Bye Lübben City
TTITLE4=Indijana - Flying Fish
TTITLE5=Peter Schmidt Solo - Don't Give Up
TTITLE6=Peter Schmidt and Gäste - Early In The Morning
TTITLE7=Kerth and Engerling - Komm herein
TTITLE8=Kerth and Engerling - Mit dir zu leben
TTITLE9=Kerth and Engerling - Helmut
TTITLE10=Kerth and Engerling - Red House
TTITLE11=Reitwein Allstars - Hoochie Coochie Man
TTITLE12=Reitwein Allstars - Gimme Shelter
EXTD=
EXTT0=
EXTT1=
EXTT2=
EXTT3=
EXTT4=
EXTT5=
EXTT6=
EXTT7=
EXTT8=
EXTT9=
EXTT10=
EXTT11=
EXTT12=
PLAYORDER=
